<svg xmlns="http://www.w3.org/2000/svg" xmlns:xlink="http://www.w3.org/1999/xlink"><defs>
    <path id="a" d="M0 0h40v40H0z"/>
  </defs><symbol id="arrow-back" viewBox="7.6 0 9.4 16.9">
  <path d="m7.9 9.1 7.7 7.6c.3.3.9.3 1.2 0 .3-.3.3-.9 0-1.2l-7.1-7 7-7.1c.3-.3.3-.9 0-1.2-.3-.3-.9-.3-1.2 0L7.9 7.9c-.4.3-.4.9 0 1.2z"/>
</symbol><symbol id="arrow-next" viewBox="7.7 0 9.3 16.9">
  <path d="M16.7 7.9 9.1.3c-.3-.4-.9-.4-1.2 0-.3.3-.3.9 0 1.2l7 7-7 7c-.3.3-.3.9 0 1.2.3.3.9.3 1.2 0l7.6-7.6c.4-.3.4-.9 0-1.2z"/>
</symbol><symbol id="arrow" viewBox="0 0 24.2 24.2">
  <path d="M12.1 17.6c-.3 0-.5-.1-.7-.3l-7.1-7.1c-.3-.3-.3-.9.1-1.3s1-.4 1.3 0l6.4 6.4 6.4-6.4c.4-.4 1-.4 1.3 0 .4.4.4 1 0 1.3l-7.1 7.1c-.1.2-.4.3-.6.3z"/>
</symbol><symbol id="calc" viewBox="0 0 40 40">
  
  <clipPath id="b">
    <use xlink:href="#a" overflow="visible"/>
  </clipPath>
  <path clip-path="url(#b)" d="M18 1c0-.6-.4-1-1-1H1C.5 0 0 .4 0 1v16c0 .6.4 1 1 1h16c.6 0 1-.4 1-1V1zM2 2h14v14H2V2zM40 1c0-.6-.4-1-1-1H23c-.6 0-1 .4-1 1v16c0 .6.4 1 1 1h16c.6 0 1-.4 1-1V1zM24 2h14v14H24V2zM18 23c0-.6-.4-1-1-1H1c-.6 0-1 .4-1 1v16c0 .6.4 1 1 1h16c.6 0 1-.4 1-1V23zM2 24h14v14H2V24zM40 23c0-.6-.4-1-1-1H23c-.6 0-1 .4-1 1v16c0 .6.4 1 1 1h16c.6 0 1-.4 1-1V23zm-16 1h14v14H24V24z"/>
  <path clip-path="url(#b)" d="M8 8H4v2h4v4h2v-4h4V8h-4V4H8zM9 29.6l-2.8-2.9-1.4 1.5L7.6 31l-2.8 2.8 1.4 1.4L9 32.4l2.8 2.8 1.4-1.4-2.8-2.8 2.8-2.8-1.4-1.5zM26 8h10v2H26zM26 30h10v2H26zM31 26c.6 0 1 .4 1 1s-.4 1-1 1-1-.4-1-1 .4-1 1-1M31 34c.6 0 1 .4 1 1s-.4 1-1 1-1-.4-1-1 .4-1 1-1"/>
</symbol><symbol id="close"><g style="enable-background:new 0 0 612 612">
  <path d="M612 36.004 576.521.603 306 270.608 35.478.603 0 36.004l270.522 270.007L0 575.997l35.478 35.4L306 341.411l270.521 269.986 35.479-35.4-270.541-269.986z"/>
</g></symbol><symbol id="cn-fb" viewBox="0 0 16.3 31.4">
  <path d="M10.6 31.4V17.1h4.8l.7-5.6h-5.5V7.9c0-1.6.4-2.7 2.8-2.7h3v-5C15.8.2 14 0 12 0 7.7 0 4.8 2.6 4.8 7.4v4.1H0v5.6h4.8v14.3h5.8z"/>
</symbol><symbol id="cn-od" viewBox="0 0 17 17">
  <path d="M7.7 12c-1.3-.1-2.5-.5-3.5-1.3-.1-.1-.3-.2-.4-.3-.5-.4-.5-.9-.2-1.4.3-.4.8-.6 1.4-.3.1.1.2.1.3.2 1.9 1.3 4.5 1.3 6.4.1.2-.1.4-.3.6-.3.4-.1.9.1 1.1.4.3.5.3.9-.1 1.2-.5.5-1.2.9-1.9 1.2-.7.2-1.4.4-2.1.5l.2.2c1 1 2 2 2.9 3 .3.3.4.8.2 1.1-.2.4-.6.7-1.1.7-.3 0-.5-.2-.7-.4l-2.2-2.2c-.2-.2-.3-.2-.5 0-.7.8-1.5 1.5-2.3 2.3-.3.3-.8.4-1.1.2-.4-.2-.7-.6-.7-1.1 0-.3.2-.5.4-.7l2.9-2.9c.2-.1.3-.1.4-.2z"/>
  <path d="M8.5 8.6c-2.4 0-4.3-2-4.3-4.3S6.1 0 8.5 0s4.3 2 4.3 4.3c0 2.4-2 4.3-4.3 4.3zm2.1-4.3c0-1.2-.9-2.1-2.1-2.1s-2.1 1-2.1 2.1c0 1.2.9 2.1 2.1 2.1 1.2 0 2.1-.9 2.1-2.1z"/>
</symbol><symbol id="cn-vk" viewBox="0 0 25.3 14.4">
  <path fill-rule="evenodd" clip-rule="evenodd" d="M12.4 14.4h1.5s.5-.1.7-.3c.2-.2.2-.7.2-.7s0-2 .9-2.3c.9-.3 2.1 2 3.4 2.8 1 .7 1.7.5 1.7.5h3.4s1.8-.1.9-1.5c-.1-.1-.5-1-2.5-2.9-2.1-2-1.8-1.6.7-5 1.6-2.1 2.2-3.3 2-3.9C25.1.6 24 .7 24 .7h-3.8s-.3 0-.5.1-.3.4-.3.4-.6 1.6-1.4 3c-1.7 2.9-2.4 3-2.6 2.8-.6-.4-.5-1.7-.5-2.6 0-2.8.4-3.9-.8-4.2-.6-.1-.9-.2-1.9-.2-1.4 0-2.5 0-3.2.3-.4.2-.8.7-.6.7.3 0 .8.2 1.1.6.5.5.4 1.7.4 1.7s.3 3.3-.5 3.7c-.5.3-1.2-.3-2.7-2.9-.8-1.3-1.4-2.8-1.4-2.8S5.2 1 5 .9C4.8.7 4.4.6 4.4.6H.8S.3.6.1.9c-.2.2 0 .6 0 .6s2.8 6.6 6 10c2.9 3.1 6.3 2.9 6.3 2.9z"/>
</symbol><symbol id="file" viewBox="0 0 15.6 15.6">
  <path d="M6.8.038c-.8 0-1.5.4-2 .9-.4.5-.6 1.1-.6 1.7 0 .9.4 1.6.9 2.3.2.4.5.8.7 1.2-.4 1.2-.9 2.6-1.4 3.7-.6.1-1.2.3-1.9.5-.6.2-1.2.5-1.7 1s-.8 1.2-.8 2c0 .5.2 1.1.6 1.5.4.4 1 .8 1.7.8 1.5 0 2.5-1 3.2-2.1.5-.7.8-1.4 1-2 1-.3 2.1-.6 3.1-.9.8.8 1.9 1.7 3.4 1.7 1.6 0 2.6-1.3 2.6-2.4 0-.6-.2-1.2-.7-1.7-.5-.5-1.2-.8-1.9-.8-.9 0-1.7.3-2.5.6-.7-.7-1.4-1.7-2-2.5.1-.3.2-.6.4-.9.3-.7.5-1.3.5-2.1 0-.6-.2-1.1-.6-1.7-.4-.4-1.1-.8-2-.8zm0 1.9c.3 0 .4.1.5.2.1.1.2.4.2.4 0 .1-.1.7-.4 1.3 0 .1-.1.2-.1.3-.1-.1-.1-.2-.2-.4-.4-.6-.6-1.2-.6-1.2 0-.1.1-.3.2-.5 0 0 .2-.1.4-.1zm.6 5.4c.4.6.8 1 1.2 1.5-.7.2-1.3.3-2 .6.3-.7.6-1.4.8-2.1zm5.6 2.1c.3 0 .4.1.5.2s.1.2.1.4c0 .1 0 .5-.6.5-.3 0-.8-.3-1.3-.6.5-.4 1-.5 1.3-.5zm-8.8 2.4-.3.6c-.5.8-1.1 1.2-1.6 1.2-.2 0-.2 0-.2-.1 0 0-.1-.1-.1-.2 0-.3.1-.5.3-.6.2-.2.5-.4 1-.5.2-.2.5-.3.9-.4z"/>
</symbol><symbol id="login" viewBox="0 0 399.3 391.4">
  <path d="M0 195.8c0 7.6 6.2 13.8 13.8 13.8h262.1l-51.1 51c-5.4 5.4-5.4 14.1 0 19.4 2.6 2.6 6.2 4 9.7 4 3.5 0 7-1.4 9.7-4l74.5-74.5c5.4-5.4 5.4-14.1 0-19.4l-74.5-74.5c-5.4-5.4-14.1-5.4-19.4 0-5.4 5.4-5.4 14.1 0 19.4l51 51h-262c-7.6.1-13.8 6.2-13.8 13.8zm0 0"/>
  <path d="M317.1 391.4c45.4 0 82.2-36.9 82.2-82.2v-227c0-45.4-36.9-82.2-82.2-82.2h-227C44.8 0 8 36.9 8 82.2v46.6c0 7.6 6.2 13.7 13.7 13.7 7.6 0 13.8-6.2 13.8-13.7V82.2c0-30.2 24.6-54.8 54.7-54.8h227c30.2 0 54.7 24.6 54.7 54.8v227c0 30.2-24.6 54.8-54.7 54.8h-227c-30.2 0-54.7-24.6-54.7-54.8v-46.1c0-7.6-6.2-13.8-13.8-13.8-7.6 0-13.7 6.2-13.7 13.8v46.1c0 45.4 36.9 82.2 82.2 82.2h226.9zm0 0"/>
</symbol><symbol id="outlook" viewBox="0 0 103.2 104.3">
  <path fill="#0072C6" d="M64.6 22.1v20.4l7.1 4.5c.2.1.6.1.8 0l30.7-20.7c0-2.4-2.3-4.2-3.6-4.2h-35z"/>
  <path fill="#0072C6" d="m64.6 50.1 6.5 4.5c.9.7 2 0 2 0-1.1.7 30.1-20 30.1-20v37.5c0 4.1-2.6 5.8-5.6 5.8h-33V50.1z"/>
  <g fill="#0072C6">
    <path d="M30.79 40.89c-2.35 0-3.917 1.176-5.484 3.135s-1.568 4.702-1.568 8.228.784 6.268 1.96 8.227c1.175 1.96 3.134 3.134 5.093 3.134 2.35 0 3.917-1.175 5.093-3.134s1.959-4.701 1.959-8.227c0-3.526-.784-6.66-1.96-8.62-1.175-1.959-2.742-2.742-5.092-2.742z"/>
    <path d="M-.16 11.899v79.924l60.726 12.93V.144L-.16 11.899zm40.745 53.283c-2.742 3.526-5.877 5.093-10.186 5.093-3.918 0-7.444-1.567-9.795-5.093-2.35-3.135-3.918-7.444-3.918-12.93 0-5.484 1.176-10.186 3.918-13.32 2.743-3.526 5.877-5.093 10.187-5.093 3.917 0 7.444 1.567 9.794 5.093 2.351 3.134 3.526 7.444 3.526 12.929.392 5.485-.783 9.795-3.526 13.32z"/>
  </g>
</symbol><symbol id="pay-maestro" viewBox="0 0 75.9 45.7">
  <g fill-rule="evenodd" clip-rule="evenodd">
    <path fill="#009DDD" d="M37.9 39.8c4.6-4.2 7.5-10.2 7.5-17 0-6.7-2.9-12.8-7.5-17-4-3.6-9.3-5.8-15.2-5.8C10.2 0 0 10.2 0 22.9c0 12.6 10.2 22.9 22.7 22.9 5.9-.1 11.2-2.3 15.2-6z"/>
    <path fill="#ED1C2E" d="M53.2 0C47.3 0 42 2.2 37.9 5.9c-.8.7-1.6 1.6-2.3 2.4h4.6c.6.8 1.2 1.6 1.7 2.4h-8c-.5.8-.9 1.6-1.3 2.4h10.7c.4.8.7 1.6 1 2.4H31.6c-.3.8-.5 1.6-.7 2.4h13.9c.3 1.6.5 3.2.5 4.8 0 2.5-.4 5-1.2 7.3H31.6c.3.8.6 1.6 1 2.4h10.7c-.4.8-.8 1.6-1.3 2.4h-8c.5.8 1.1 1.7 1.7 2.4h4.6c-.7.9-1.5 1.7-2.3 2.4 4 3.7 9.4 5.9 15.2 5.9 12.5 0 22.7-10.2 22.7-22.9C75.9 10.2 65.7 0 53.2 0z"/>
    <path fill="#ED1C2E" d="M72.9 35.6c0-.4.3-.7.7-.7.4 0 .7.3.7.7 0 .4-.3.7-.7.7-.4.1-.7-.3-.7-.7zm.7.6c.3 0 .6-.3.6-.6s-.2-.6-.6-.6c-.3 0-.6.3-.6.6s.3.6.6.6zm-.1-.3h-.2v-.6h.5c.1 0 .1.1.1.2s0 .1-.1.2l.1.3h-.2l-.1-.3h-.1v.2-.4h.2v-.2h-.2V35.9z"/>
    <path fill="#FFF" d="M68.1 27.8c0-.4.3-.7.7-.7.4 0 .7.3.7.7 0 .4-.3.7-.7.7-.4.1-.7-.3-.7-.7zm.7.6c.3 0 .6-.3.6-.6s-.2-.6-.6-.6c-.3 0-.6.3-.6.6s.3.6.6.6zm-.1-.2h-.2v-.6h.5c.1 0 .1.1.1.2s0 .1-.1.2l.1.3h-.2l-.1-.3h-.1v.2-.4h.2v-.2h-.2V28.2zM19.9 28.6H17l1.7-8.9-3.8 8.9h-2.6l-.5-8.9-1.7 8.9H7.6L9.7 17h4.5l.2 7.1 3.1-7.1h4.6l-2.2 11.6zM51.4 28.5c-.8.2-1.4.3-2 .3-1.4 0-2.2-.7-2.2-2.1 0-.3 0-.5.1-.8l.2-.9.1-.7 1.3-7.2h2.8l-.4 2.2h1.4l-.4 2.3h-1.4l-.7 3.9v.4c0 .5.3.7 1 .7.3 0 .6 0 .8-.1l-.6 2zM59.7 19.2c-.2-.1-.3-.1-.3-.1-.1 0-.2-.1-.2-.1h-.3c-.9 0-1.6.4-2.5 1.5l.2-1.4H54l-1.7 9.4h2.8c1-5.8 1.4-6.8 2.8-6.8h.4l.3.1 1.1-2.6zM40.2 22.1c0 1.2.7 2 2.2 2.6 1.2.5 1.3.6 1.3 1 0 .6-.5.9-1.6.9-.9 0-1.6-.1-2.6-.4l-.4 2.2h.1l.5.1c.2 0 .4.1.7.1.7.1 1.2.1 1.6.1 3 0 4.4-1 4.4-3.1 0-1.3-.6-2.1-2-2.6-1.2-.5-1.3-.6-1.3-1 0-.5.5-.8 1.4-.8.6 0 1.3.1 2.1.1l.4-2.2c-.7-.1-1.9-.2-2.5-.2-3.2 0-4.3 1.5-4.3 3.2zM29.1 28.6h-2.3l.1-1c-.7.8-1.7 1.1-3 1.1-1.5 0-2.6-1-2.6-2.6 0-2.3 1.8-3.6 5-3.6.3 0 .7 0 1.2.1.1-.3.1-.4.1-.6 0-.6-.5-.9-1.8-.9-.8 0-1.7.1-2.3.3l-.4.1-.3.1.4-2.1c1.4-.4 2.3-.5 3.4-.5 2.4 0 3.7 1 3.7 2.8 0 .5 0 .8-.2 1.9l-.6 3.3-.1.6-.3.4v.6zM27 24.4h-.6c-1.6 0-2.4.5-2.4 1.4 0 .6.4 1 1 1 1.1-.1 1.9-1 2-2.4zM38.3 28.4c-1 .3-1.9.4-2.9.4-3.2 0-4.8-1.5-4.8-4.2 0-3.2 2.1-5.6 4.9-5.6 2.3 0 3.8 1.3 3.8 3.4 0 .7-.1 1.4-.3 2.3h-5.6v.3c0 1.1.8 1.7 2.5 1.7 1 0 1.9-.2 2.9-.6l-.5 2.3zm-1.5-5.6v-.5c0-.8-.5-1.2-1.3-1.2-.9 0-1.5.6-1.8 1.7h3.1zM68.5 24.3c-.4 3.1-2.6 4.5-5.5 4.5-3.2 0-4.5-2-4.5-4.3 0-3.3 2.2-5.6 5.6-5.6 2.9 0 4.5 1.9 4.5 4.3 0 .5 0 .5-.1 1.1zm-2.9-1.2c0-1-.4-1.9-1.6-1.9-1.4 0-2.3 1.7-2.3 3.2 0 1.3.6 2.1 1.6 2.1.6 0 1.9-.8 2.2-2.3 0-.3.1-.7.1-1.1z"/>
  </g>
</symbol><symbol id="pay-master-card" viewBox="0 0 76.4 59.2">
  <path d="M13.9 59.1v-3.9c0-1.5-.9-2.5-2.5-2.5-.8 0-1.6.2-2.2 1.1-.4-.7-1.1-1.1-2.1-1.1-.7 0-1.3.2-1.8.9v-.8H4v6.3h1.4v-3.5c0-1.1.6-1.7 1.5-1.7s1.4.6 1.4 1.7v3.5h1.4v-3.5c0-1.1.6-1.7 1.5-1.7s1.4.6 1.4 1.7v3.5h1.3zm20.4-6.3H32v-1.9h-1.4v1.9h-1.3V54h1.3v2.9c0 1.5.6 2.3 2.2 2.3.6 0 1.3-.2 1.7-.5l-.4-1.2c-.4.2-.9.4-1.2.4-.7 0-.9-.4-.9-1v-2.8h2.2v-1.3zm11.6-.2c-.8 0-1.3.4-1.7.9v-.8h-1.4V59h1.4v-3.5c0-1 .4-1.6 1.3-1.6.3 0 .6 0 .9.2l.4-1.3c-.2-.1-.6-.2-.9-.2zm-17.6.7c-.7-.4-1.6-.7-2.6-.7-1.6 0-2.6.8-2.6 2 0 1 .8 1.7 2.2 1.8l.6.1c.7.1 1.1.3 1.1.7 0 .5-.5.8-1.4.8-.9 0-1.6-.3-2.1-.7l-.6 1.1c.7.6 1.7.8 2.7.8 1.8 0 2.9-.9 2.9-2s-.8-1.7-2.2-1.9l-.6-.1c-.6-.1-1.1-.2-1.1-.6 0-.5.4-.7 1.2-.7.8 0 1.6.3 2 .5l.5-1.1zm36.5-.7c-.8 0-1.3.4-1.7.9v-.8h-1.4V59h1.4v-3.5c0-1 .4-1.6 1.3-1.6.3 0 .6 0 .9.2l.4-1.3c-.2-.1-.6-.2-.9-.2zm-17.5 3.3c0 1.9 1.3 3.3 3.3 3.3.9 0 1.6-.2 2.3-.7l-.7-1.1c-.5.4-1 .6-1.6.6-1.1 0-1.9-.8-1.9-2s.8-2 1.9-2c.6 0 1.1.2 1.6.6l.7-1.1c-.7-.5-1.3-.7-2.3-.7-2-.2-3.3 1.2-3.3 3.1zm12.7 0v-3.1h-1.4v.8c-.4-.6-1.1-.9-2-.9-1.8 0-3.1 1.4-3.1 3.3s1.4 3.3 3.1 3.3c.9 0 1.5-.4 2-.9v.8H60v-3.3zm-5 0c0-1.1.7-2 1.9-2 1.1 0 1.9.9 1.9 2s-.8 2-1.9 2c-1.2 0-1.9-.9-1.9-2zm-16.5-3.3c-1.8 0-3.1 1.3-3.1 3.3 0 2 1.3 3.3 3.2 3.3.9 0 1.8-.2 2.6-.9l-.7-1c-.5.5-1.2.7-1.8.7-.9 0-1.7-.4-1.9-1.5h4.7V56c0-2-1.2-3.4-3-3.4zm0 1.3c.9 0 1.4.6 1.6 1.5h-3.3c.2-.9.7-1.5 1.7-1.5zm34.2 2v-5.7h-1.4v3.3c-.4-.6-1.1-.9-2-.9-1.8 0-3.1 1.4-3.1 3.3s1.4 3.3 3.1 3.3c.9 0 1.5-.4 2-.9v.8h1.4v-3.2zm-5.1 0c0-1.1.7-2 1.9-2 1.1 0 1.9.9 1.9 2s-.8 2-1.9 2c-1.2 0-1.9-.9-1.9-2zm-46 0v-3.1h-1.4v.8c-.4-.6-1.1-.9-2-.9-1.8 0-3.1 1.4-3.1 3.3s1.4 3.3 3.1 3.3c.9 0 1.5-.4 2-.9v.8h1.4v-3.3zm-5.1 0c0-1.1.7-2 1.9-2 1.1 0 1.9.9 1.9 2s-.8 2-1.9 2c-1.2 0-1.9-.9-1.9-2z"/>
  <path fill="#F16022" d="M27.9 5h20.7v37.1H27.9z"/>
  <path fill="#E91D25" d="M29.2 23.6c0-7.5 3.5-14.2 9-18.6-4-3.2-9.1-5-14.6-5C10.6 0 0 10.6 0 23.6c0 13 10.6 23.6 23.6 23.6 5.5 0 10.6-1.9 14.6-5-5.5-4.4-9-11.1-9-18.6z"/>
  <path fill="#F69E1E" d="M76.4 23.6c0 13-10.6 23.6-23.6 23.6-5.5 0-10.6-1.9-14.6-5 5.5-4.3 9-11 9-18.6S43.7 9.4 38.2 5c4-3.2 9.1-5 14.6-5 13 0 23.6 10.6 23.6 23.6z"/>
</symbol><symbol id="pay-mir" viewBox="0 0 285.2 80.4"><g style="enable-background:new 0 0 285.2 80.4">
  <path fill="#21AA4D" d="m157.8 8.4-17.9 38.8h-1.8V0h-25.4v80h21.6c5.7 0 10.8-3.3 13.2-8.4l17.9-38.8h1.8V80h25.4V0H171c-5.6 0-10.8 3.3-13.2 8.4M62.4 10.5 51.8 47.2H50L39.4 10.5C37.6 4.3 31.9 0 25.4 0H0v80h25.4V32.7h1.8L41.8 80H60l14.5-47.2h1.8V80h25.4V0H76.3c-6.4 0-12.1 4.3-13.9 10.5M203.5 36.3V80h25.4V54.5h27.3c11.9 0 21.9-7.6 25.7-18.2h-78.4z"/>
  <path fill="#1294d2" d="M256.2 0h-56.3c3.4 18.6 19.7 32.7 39.3 32.7h43.7c.4-1.8.5-3.6.5-5.5.1-15-12.1-27.2-27.2-27.2"/>
</g></symbol><symbol id="pay-visa" viewBox="0 0 108.3 33.2">
  <path fill="#00589F" d="M38.2 32.7 43.7.6h8.7l-5.5 32.1zM78.8 1.4C77 .7 74.3 0 70.9 0c-8.7 0-14.8 4.4-14.8 10.6 0 4.6 4.4 7.2 7.7 8.7 3.4 1.6 4.6 2.6 4.5 4 0 2.2-2.7 3.1-5.2 3.1-3.5 0-5.4-.5-8.3-1.7l-1.1-.5-1.2 7.2c2 .9 5.8 1.7 9.8 1.7 9.2 0 15.2-4.3 15.3-11 0-3.7-2.3-6.4-7.4-8.7-3.1-1.5-4.9-2.5-4.9-4 0-1.3 1.6-2.8 5-2.8 2.9 0 4.9.6 6.6 1.2l.8.4 1.1-6.8M101.2.6h-6.8c-2.1 0-3.7.6-4.6 2.7l-13 29.5H86l1.8-4.8H99c.3 1.1 1.1 4.8 1.1 4.8h8.1l-7-32.2M90.4 21.3c.7-1.9 3.5-9 3.5-9-.1.1.7-1.9 1.2-3.1l.6 2.8s1.7 7.7 2 9.3h-7.3zM30.8.6l-8.6 21.9-.9-4.5C19.7 12.9 14.7 7.4 9.2 4.6L17 32.7h9.3L40.1.6h-9.3"/>
  <path fill="#F9A51A" d="M14.3.6H.1l-.1.6C11 3.9 18.3 10.3 21.3 18L18.2 3.3c-.5-2.1-2-2.7-3.9-2.7"/>
</symbol><symbol id="pay-yandex-money" viewBox="0 0 62.9 77.6">
  <path fill="#FFCE01" d="M9 38.2c0-3.3.3-5.4 7.2-10.6 5.7-4.3 24-18.8 24-18.8v24.3H54V68H13.3C10.9 68 9 66 9 63.7V38.2z"/>
  <path fill="#D2AA07" d="M40.1 33.1v14L14.6 64.5 46.9 54V33.1z"/>
  <path fill="#231F20" d="M28.4 32.3c1.5-1.8 3.7-2.4 4.9-1.4 1.2 1 1 3.3-.5 5-1.5 1.8-3.7 2.4-4.9 1.4-1.2-.9-.9-3.2.5-5"/>
</symbol><symbol id="search" viewBox="0 0 60 60"><g style="enable-background:new 0 0 60 60">
  <path d="M58.7 53.3 43.1 37.6c2.8-3.9 4.5-8.7 4.5-13.8C47.6 10.7 36.9 0 23.8 0S0 10.7 0 23.9s10.6 23.9 23.8 23.9c5 0 9.8-1.7 13.7-4.5L53.2 59c1.4 1.4 3.9 1.4 5.6 0 1.6-1.7 1.6-4-.1-5.7zM23.8 42.1C13.7 42.1 5.6 34 5.6 23.9S13.7 5.7 23.8 5.7 42 13.8 42 23.9s-8.2 18.2-18.2 18.2z"/>
</g></symbol><symbol id="sign-up" viewBox="0 0 30 30">
  <path d="M27 30H3c-1.7 0-3-1.3-3-3V5c0-1.7 1.1-3 2.5-3H4v2H2.5c-.2 0-.5.4-.5 1v22c0 .6.4 1 1 1h24c.6 0 1-.4 1-1V5c0-.6-.3-1-.5-1H26V2h1.5C28.9 2 30 3.3 30 5v22c0 1.7-1.3 3-3 3"/>
  <path d="M7 6c-.6 0-1-.4-1-1V1c0-.6.4-1 1-1s1 .4 1 1v4c0 .6-.4 1-1 1M23 6c-.6 0-1-.4-1-1V1c0-.6.4-1 1-1s1 .4 1 1v4c0 .6-.4 1-1 1M10 2h10v2H10zM2 8h26v2H2zM24 12h2v2h-2zM20 12h2v2h-2zM16 12h2v2h-2zM12 12h2v2h-2zM8 12h2v2H8zM24 16h2v2h-2zM20 16h2v2h-2zM16 16h2v2h-2zM12 16h2v2h-2zM8 16h2v2H8zM4 16h2v2H4zM24 20h2v2h-2zM20 20h2v2h-2zM16 20h2v2h-2zM12 20h2v2h-2zM8 20h2v2H8zM4 20h2v2H4zM20 24h2v2h-2zM16 24h2v2h-2zM12 24h2v2h-2zM8 24h2v2H8zM4 24h2v2H4z"/>
</symbol><symbol id="star" viewBox="0 0 34.1 32">
  <path d="M27.1 31.938c.6-.1 1-.6.9-1.2v-.1l-1.7-10.2 7.5-7.3c.4-.4.4-1.1 0-1.5-.2-.2-.4-.3-.6-.3l-10.4-1.6-4.7-9.3c-.3-.5-.9-.7-1.4-.5-.2.1-.4.3-.5.5l-4.7 9.3-10.4 1.6c-.6.1-1 .6-.9 1.2 0 .2.1.4.3.6l7.5 7.3-1.7 10.2c-.1.6.3 1.1.9 1.2.2 0 .5 0 .7-.1l9.4-4.8 9.4 4.8c-.1.2.1.2.4.2zm-1.6-2.9-8-4.1c-.3-.2-.7-.2-1 0l-8 4.1 1.5-8.7c.1-.3-.1-.7-.3-.9l-6.4-6.2 8.9-1.3c.3-.1.6-.3.8-.6l4-7.9 4 7.9c.2.3.5.5.8.6l8.9 1.3-6.4 6.2c-.3.2-.4.6-.3.9l1.5 8.7z"/>
</symbol><symbol id="tel" viewBox="0 0.7 16 15.6">
  <path d="M.8.7h3.7s.4-.1.7 1.2c.4 1.4.8 2.7.8 2.7s.3.3-.2 1-1.4 1.6-1.4 1.6 1.2 2.2 2.7 3.3 2.5 1.7 2.5 1.7l1.5-1.5s.3-.5 1.1-.3 2.9.6 3 .6c.1 0 .7.1.7.8v3.1s0 1.1-.8 1.2c-.7.1-3.6-.1-6.5-1.5C5.2 13 3 10.1 2.3 9.1 1.7 8.1.3 5 .1 3.5S0 1.7 0 1.7s0-.8.8-1z"/>
</symbol><symbol id="view">
  <path d="M9 3c1.141 0 2 .86 2 2 0 1.141-.859 2-2 2-1.14 0-2-.859-2-2 0-1.14.86-2 2-2m0-1C7.3 2 6 3.3 6 5s1.3 3 3 3 3-1.3 3-3-1.3-3-3-3z"/>
  <path d="M9 1c4.277 0 6.668 2.402 7.75 3.917C15.33 6.552 13.019 9 9 9 5.142 9 2.546 6.576 1.289 5.039 2.711 3.403 5.017 1 9 1m0-1C4 0 1.4 3.4 0 5c1 1.4 4 5 9 5s7.6-3.4 9-5c-1.2-2-4-5-9-5z"/>
</symbol></svg>